<svg xmlns="http://www.w3.org/2000/svg" viewBox="20 160.86793113945396 409.239990234375 253.26413772109208"> <svg xmlns="http://www.w3.org/2000/svg" xmlns:xlink="http://www.w3.org/1999/xlink" version="1.1" id="Livello_1" x="90" y="230.86793113945396" viewBox="1594.9000244140625 838.2999877929688 262.800048828125 418.70001220703125" xml:space="preserve" height="113.26413772109207" width="71.09105961697834" preserveAspectRatio="xMinYMin" enable-background="new 0 0 2000 2000" style="overflow: visible;"><linearGradient id="SVGID_1_" gradientUnits="userSpaceOnUse" x1="1687.9132" y1="1314.1021" x2="1828.2579" y2="832.2104" style=""><stop offset="0" style="stop-color: #7FFFC4;"></stop><stop offset="1" style="stop-color: #0BB8FC;"></stop></linearGradient><path class="st0" d="M1834.8,1103.5l-175.4,62.2c-35.7,12.6-54.3,51.8-41.7,87.5l1.3,3.8l175.4-62.2c35.7-12.6,54.3-51.8,41.7-87.5   L1834.8,1103.5z" style="fill: #ff0c65; fill-opacity: 1;"></path><linearGradient id="SVGID_2_" gradientUnits="userSpaceOnUse" x1="1632.3416" y1="1297.9175" x2="1772.6863" y2="816.0259" style=""><stop offset="0" style="stop-color: #7FFFC4;"></stop><stop offset="1" style="stop-color: #0BB8FC;"></stop></linearGradient><path class="st1" d="M1856.6,838.3c-23.1,0-43.6,11.3-56.2,28.7c-21.1-14.5-46.7-23-74.1-23c-72.5,0-131.4,59-131.4,131.4   s59,131.4,131.4,131.4c72.5,0,131.4-59,131.4-131.4l0,0V838.3H1856.6z M1726.2,1036.3c-33.5,0-60.8-27.3-60.8-60.8   s27.3-60.8,60.8-60.8c33.5,0,60.8,27.3,60.8,60.8S1759.8,1036.3,1726.2,1036.3z" style="fill: #ff0c65; fill-opacity: 1;"></path></svg> <svg xmlns="http://www.w3.org/2000/svg" x="182" y="259" viewBox="2.0999999046325684 20.579999923706055 177.239990234375 42.779998779296875" height="42.779998779296875" width="177.239990234375" style="overflow: visible;"><g fill="#3e3e3e" fill-opacity="1" style=""><path d="M42.96 33.72L33.30 33.72Q31.86 31.08 29.34 29.70Q26.82 28.32 23.46 28.32L23.46 28.32Q19.74 28.32 16.86 30Q13.98 31.68 12.36 34.80Q10.74 37.92 10.74 42L10.74 42Q10.74 46.20 12.39 49.32Q14.04 52.44 16.98 54.12Q19.92 55.80 23.82 55.80L23.82 55.80Q28.62 55.80 31.68 53.25Q34.74 50.70 35.70 46.14L35.70 46.14L21.30 46.14L21.30 39.72L43.98 39.72L43.98 47.04Q43.14 51.42 40.38 55.14Q37.62 58.86 33.27 61.11Q28.92 63.36 23.52 63.36L23.52 63.36Q17.46 63.36 12.57 60.63Q7.68 57.90 4.89 53.04Q2.10 48.18 2.10 42L2.10 42Q2.10 35.82 4.89 30.93Q7.68 26.04 12.57 23.31Q17.46 20.58 23.46 20.58L23.46 20.58Q30.54 20.58 35.76 24.03Q40.98 27.48 42.96 33.72L42.96 33.72ZM84.54 63L74.82 63L65.58 46.68L61.62 46.68L61.62 63L53.22 63L53.22 21.12L68.94 21.12Q73.80 21.12 77.22 22.83Q80.64 24.54 82.35 27.45Q84.06 30.36 84.06 33.96L84.06 33.96Q84.06 38.10 81.66 41.43Q79.26 44.76 74.52 46.02L74.52 46.02L84.54 63ZM61.62 28.08L61.62 40.38L68.64 40.38Q72.06 40.38 73.74 38.73Q75.42 37.08 75.42 34.14L75.42 34.14Q75.42 31.26 73.74 29.67Q72.06 28.08 68.64 28.08L68.64 28.08L61.62 28.08ZM94.68 21.12L103.08 21.12L103.08 63L94.68 63L94.68 21.12ZM141.78 27.60L122.94 55.92L141.78 55.92L141.78 63L113.22 63L113.22 56.52L131.94 28.20L113.22 28.20L113.22 21.12L141.78 21.12L141.78 27.60ZM179.34 27.60L160.50 55.92L179.34 55.92L179.34 63L150.78 63L150.78 56.52L169.50 28.20L150.78 28.20L150.78 21.12L179.34 21.12L179.34 27.60Z" transform="translate(0, 0)"></path></g></svg></svg>